<svg
   fill="none"
   viewBox="0 0 24 24"
   stroke-width="1.1"
   stroke="currentColor"
   class="w-6 h-6"
   xmlns="http://www.w3.org/2000/svg"
   >
  <path
     stroke-linecap="round"
     stroke-linejoin="round"
     d="m 8.2500001,5.2499998 c -1.656854,0 -3,1.343146 -3,3 m -3,0 c -5.56e-4,3.7255162 3.106999,6.1194712 6.921136,6.1277272 1.9192079,0.01318 3.0751849,-0.790364 3.0751849,-0.790364 l 0.246951,2.583999 2.6455,-0.143818 0.03596,2.789319 2.321909,0.07191 0.143818,2.897183 3.426404,-0.03596 v -2.818 c 0,-0.597 0.1585,-1.385727 -0.407318,-2.094364 C 19.469258,15.754627 16.758333,13.008333 14.592,10.842 14.188,10.438 14.065,9.8419998 14.162,9.2789998 c 0.599865,-3.463856 -1.893258,-6.699017 -5.3956249,-7.001564 -3.502366,-0.302546 -6.513346,2.457151 -6.516375,5.972564 z" />
</svg>
